<?xml version="1.0" encoding="UTF-8"?>
<svg width="45px" height="29px" viewBox="0 0 45 29" version="1.1" xmlns="http://www.w3.org/2000/svg" xmlns:xlink="http://www.w3.org/1999/xlink">
    <!-- Generator: Sketch 63.1 (92452) - https://sketch.com -->
    <title>HANDBURGER</title>
    <desc>Created with Sketch.</desc>
    <g id="Page-1" stroke="none" stroke-width="1" fill="none" fill-rule="evenodd">
        <g id="23.1-MAIN-UI---INVENTORY-MANAGEMENT" transform="translate(-1371.000000, -392.000000)" fill="#FDFDFD">
            <g id="INVENTORY-MANAGEMENT" transform="translate(293.000000, 203.000000)">
                <g id="HANDBURGER" transform="translate(1078.000000, 189.000000)">
                    <g>
                        <path d="M43.5428578,12.8000002 L10.857143,12.8000002 C10.1622573,12.8000002 9.60000014,13.5156242 9.60000014,14.4000002 C9.60000014,15.2843762 10.1622762,16.0000002 10.857143,16.0000002 L43.5428578,16.0000002 C44.2377435,16.0000002 44.8000007,15.2843762 44.8000007,14.4000002 C44.8000007,13.5156242 44.2377247,12.8000002 43.5428578,12.8000002 Z" id="Fill-1"></path>
                        <path d="M43.2000006,0 L1.60000002,0 C0.715600011,0 0,0.715624011 0,1.60000002 C0,2.48437604 0.715624011,3.20000005 1.60000002,3.20000005 L43.2000006,3.20000005 C44.0844007,3.20000005 44.8000007,2.48437604 44.8000007,1.60000002 C44.8000007,0.715624011 44.0843767,0 43.2000006,0 Z" id="Fill-2"></path>
                        <path d="M44.8000007,27.2000004 C44.8000007,26.7750004 44.703571,26.3687204 44.5321426,26.0687204 C44.3607141,25.7687204 44.1285726,25.5999684 43.8856973,25.5999684 L20.1142854,25.5999684 C19.6089143,25.5999684 19.2000003,26.3155924 19.2000003,27.1999684 C19.2000003,28.0843444 19.608928,28.7999684 20.1142854,28.7999684 L43.8856973,28.7999684 C44.1285543,28.7999684 44.3607141,28.6312164 44.5321426,28.3312164 C44.703571,28.0312164 44.8000007,27.6249684 44.8000007,27.1999364 L44.8000007,27.2000004 Z" id="Fill-3"></path>
                    </g>
                </g>
            </g>
        </g>
    </g>
</svg>