<svg xmlns="http://www.w3.org/2000/svg" width="838" height="900" viewBox="0 0 838 900">
    <g fill="none" fill-rule="evenodd" opacity=".1">
        <g stroke="#FFF">
            <path d="M0 446.808c98.833 25.098 202.707-4.042 311.625-87.42C475 234.323 573.627 163.448 612.125 245.096c38.497 81.649-138 210.463-233 326.135-95 115.673-117 30.778-47.5-44.3s243.5-243.103 145.5-211.995C379.125 346.043 0 638.293 0 760.1c0 121.806 363.391-20.004 537.258-193.004 173.867-173 153.33-415.738 294.094-459.92 140.763-44.182-22.727 317.588-261.227 528.719-238.5 211.13-425.6 325.804-425.6 516.074 0 190.27 216.894 166.162 406.406 0 189.511-166.162 353.344-353.059 362.254-499.255 8.91-146.196-155.431 230.255-301.06 322.287-145.63 92.032-255 129.504-255-7.088 0-136.59 208-151.892 360-316.495 152-164.602 152.02-292.028 234.882-292.028C1034.868 359.389 1080.303 0 917.125 0S513.436 281.501 39.793 314.935" transform="translate(-190 -139)"/>
        </g>
    </g>
</svg>
